<svg xmlns="http://www.w3.org/2000/svg" xmlns:xlink="http://www.w3.org/1999/xlink" width="500" zoomAndPan="magnify" viewBox="0 0 375 374.999991" height="500" preserveAspectRatio="xMidYMid meet" version="1.0"><defs><g/><clipPath id="6ce74d8be3"><path d="M 111.722656 153.195312 L 167.222656 153.195312 L 167.222656 221.445312 L 111.722656 221.445312 Z M 111.722656 153.195312 " clip-rule="nonzero"/></clipPath></defs><g fill="#f9943b" fill-opacity="1"><g transform="translate(167.438989, 198.827022)"><g>
<path d="M 9.109375 -17.015625 C 9.242188 -17.046875 9.359375 -17.0625 9.453125 -17.0625 C 9.523438 -17.0625 9.59375 -17.0625 9.65625 -17.0625 L 9.75 -17.09375 L 9.75 -15.140625 C 9.75 -13.828125 9.726562 -13.171875 9.6875 -13.171875 C 9.414062 -13.171875 9.03125 -13.054688 8.53125 -12.828125 C 7.050781 -12.128906 6.351562 -10.265625 6.4375 -7.234375 C 6.457031 -6.734375 6.507812 -6.175781 6.59375 -5.5625 C 6.6875 -4.945312 6.847656 -4.351562 7.078125 -3.78125 C 7.316406 -3.21875 7.632812 -2.726562 8.03125 -2.3125 C 8.4375 -1.90625 8.945312 -1.660156 9.5625 -1.578125 L 9.734375 -1.546875 L 9.75 0.296875 L 9.75 2.171875 L 9.5 2.171875 C 8.851562 2.171875 8.207031 2.09375 7.5625 1.9375 C 6.914062 1.78125 6.300781 1.554688 5.71875 1.265625 C 5.132812 0.972656 4.59375 0.609375 4.09375 0.171875 C 3.59375 -0.253906 3.160156 -0.742188 2.796875 -1.296875 C 1.941406 -2.546875 1.390625 -4.117188 1.140625 -6.015625 C 1.128906 -6.160156 1.125 -6.363281 1.125 -6.625 C 1.125 -6.894531 1.125 -7.222656 1.125 -7.609375 C 1.125 -7.972656 1.125 -8.285156 1.125 -8.546875 C 1.132812 -8.816406 1.148438 -9.035156 1.171875 -9.203125 C 1.285156 -10.003906 1.484375 -10.78125 1.765625 -11.53125 C 2.054688 -12.289062 2.425781 -12.992188 2.875 -13.640625 C 3.332031 -14.296875 3.875 -14.867188 4.5 -15.359375 C 5.125 -15.847656 5.835938 -16.226562 6.640625 -16.5 C 7.367188 -16.789062 8.191406 -16.960938 9.109375 -17.015625 Z M 10.328125 -15.140625 L 10.328125 -17.09375 L 10.5625 -17.09375 C 11.238281 -17.09375 11.90625 -17 12.5625 -16.8125 C 13.21875 -16.632812 13.835938 -16.382812 14.421875 -16.0625 C 15.003906 -15.738281 15.546875 -15.347656 16.046875 -14.890625 C 16.554688 -14.429688 17 -13.914062 17.375 -13.34375 C 18.238281 -12.03125 18.773438 -10.5625 18.984375 -8.9375 C 19.023438 -8.800781 19.046875 -8.601562 19.046875 -8.34375 C 19.054688 -8.082031 19.0625 -7.789062 19.0625 -7.46875 C 19.03125 -6.5 18.914062 -5.546875 18.71875 -4.609375 C 18.519531 -3.679688 18.160156 -2.796875 17.640625 -1.953125 C 16.941406 -0.785156 16.054688 0.132812 14.984375 0.8125 C 13.910156 1.5 12.675781 1.925781 11.28125 2.09375 C 11.144531 2.113281 11.023438 2.125 10.921875 2.125 C 10.828125 2.132812 10.75 2.140625 10.6875 2.140625 L 10.484375 2.140625 L 10.453125 1.171875 C 10.441406 0.554688 10.441406 -0.0546875 10.453125 -0.671875 L 10.484375 -1.578125 L 10.8125 -1.640625 C 11.425781 -1.828125 11.921875 -2.109375 12.296875 -2.484375 C 12.679688 -2.867188 12.976562 -3.3125 13.1875 -3.8125 C 13.394531 -4.3125 13.539062 -4.847656 13.625 -5.421875 C 13.707031 -5.992188 13.757812 -6.570312 13.78125 -7.15625 C 13.820312 -8.40625 13.675781 -9.539062 13.34375 -10.5625 C 12.832031 -12.132812 11.96875 -13.015625 10.75 -13.203125 L 10.359375 -13.28125 Z M 10.328125 -15.140625 "/></g></g></g><g fill="#f9943b" fill-opacity="1"><g transform="translate(192.41605, 198.827022)"><g><path d="M 1.453125 -16.796875 C 1.410156 -16.804688 1.429688 -16.820312 1.515625 -16.84375 C 1.597656 -16.863281 1.84375 -16.875 2.25 -16.875 C 2.664062 -16.875 3.253906 -16.875 4.015625 -16.875 L 6.71875 -16.875 L 6.71875 1.890625 L 1.828125 1.890625 L 1.828125 -16.421875 L 1.703125 -16.5625 C 1.648438 -16.664062 1.566406 -16.742188 1.453125 -16.796875 Z M 7.390625 -16.875 L 9.4375 -16.875 C 9.976562 -16.875 10.425781 -16.875 10.78125 -16.875 C 11.144531 -16.875 11.421875 -16.863281 11.609375 -16.84375 C 12.347656 -16.789062 13.035156 -16.5625 13.671875 -16.15625 C 14.316406 -15.75 14.84375 -15.238281 15.25 -14.625 C 15.84375 -13.707031 16.125 -12.722656 16.09375 -11.671875 C 16.070312 -11.273438 16.019531 -10.9375 15.9375 -10.65625 C 15.738281 -10.050781 15.390625 -9.523438 14.890625 -9.078125 C 14.390625 -8.628906 13.828125 -8.363281 13.203125 -8.28125 C 12.929688 -8.226562 12.789062 -8.195312 12.78125 -8.1875 C 12.78125 -8.15625 12.851562 -8.140625 13 -8.140625 C 13.550781 -8.140625 14.039062 -8.035156 14.46875 -7.828125 C 14.90625 -7.628906 15.273438 -7.359375 15.578125 -7.015625 C 15.890625 -6.679688 16.140625 -6.289062 16.328125 -5.84375 C 16.523438 -5.394531 16.644531 -4.910156 16.6875 -4.390625 C 16.769531 -3.378906 16.585938 -2.429688 16.140625 -1.546875 C 15.796875 -0.796875 15.3125 -0.15625 14.6875 0.375 C 14.0625 0.90625 13.363281 1.304688 12.59375 1.578125 C 12.394531 1.660156 12.203125 1.722656 12.015625 1.765625 C 11.835938 1.804688 11.675781 1.832031 11.53125 1.84375 C 11.363281 1.863281 11.101562 1.875 10.75 1.875 C 10.40625 1.875 9.945312 1.875 9.375 1.875 L 7.390625 1.890625 L 7.390625 -1.546875 L 8.609375 -1.546875 C 8.941406 -1.546875 9.210938 -1.550781 9.421875 -1.5625 C 9.628906 -1.570312 9.789062 -1.582031 9.90625 -1.59375 C 10.09375 -1.613281 10.3125 -1.679688 10.5625 -1.796875 C 10.707031 -1.898438 10.859375 -2.035156 11.015625 -2.203125 C 11.171875 -2.378906 11.285156 -2.550781 11.359375 -2.71875 C 11.523438 -3.070312 11.597656 -3.476562 11.578125 -3.9375 C 11.554688 -4.40625 11.460938 -4.804688 11.296875 -5.140625 C 11.210938 -5.285156 11.09375 -5.429688 10.9375 -5.578125 C 10.78125 -5.734375 10.632812 -5.84375 10.5 -5.90625 C 10.269531 -6.039062 10.0625 -6.117188 9.875 -6.140625 C 9.78125 -6.148438 9.628906 -6.15625 9.421875 -6.15625 C 9.210938 -6.15625 8.941406 -6.15625 8.609375 -6.15625 L 7.390625 -6.15625 L 7.390625 -9.828125 L 8.390625 -9.828125 C 8.703125 -9.828125 8.957031 -9.828125 9.15625 -9.828125 C 9.351562 -9.828125 9.492188 -9.835938 9.578125 -9.859375 C 10.078125 -9.972656 10.460938 -10.226562 10.734375 -10.625 C 11.015625 -11.03125 11.113281 -11.488281 11.03125 -12 C 10.945312 -12.382812 10.816406 -12.679688 10.640625 -12.890625 C 10.460938 -13.097656 10.257812 -13.25 10.03125 -13.34375 C 9.800781 -13.445312 9.539062 -13.503906 9.25 -13.515625 C 8.96875 -13.535156 8.671875 -13.546875 8.359375 -13.546875 L 7.390625 -13.546875 Z M 7.390625 -16.875 "/></g></g></g><g fill="#f9943b" fill-opacity="1"><g transform="translate(214.923143, 198.827022)"><g><path d="M 1.625 -16.765625 L 1.421875 -16.875 L 7.0625 -16.875 L 7.0625 1.890625 L 2 1.890625 L 2 -16.296875 L 1.921875 -16.46875 C 1.859375 -16.601562 1.757812 -16.703125 1.625 -16.765625 Z M 1.75 -22.078125 L 6.71875 -22.078125 L 6.71875 -18.265625 L 1.75 -18.265625 Z M 1.75 -22.078125 "/></g></g></g><g fill="#f9943b" fill-opacity="1"><g transform="translate(228.648122, 198.827022)"><g><path d="M 1.421875 -16.875 L 6.90625 -16.875 L 6.90625 1.890625 L 1.84375 1.890625 L 1.84375 -8.6875 C 1.84375 -10.644531 1.84375 -12.191406 1.84375 -13.328125 C 1.84375 -14.472656 1.835938 -15.210938 1.828125 -15.546875 C 1.804688 -16.191406 1.753906 -16.554688 1.671875 -16.640625 L 1.625 -16.6875 C 1.59375 -16.726562 1.554688 -16.765625 1.515625 -16.796875 C 1.484375 -16.828125 1.453125 -16.851562 1.421875 -16.875 Z M 7.5625 -16.875 L 8.40625 -16.875 L 8.8125 -15.921875 C 8.894531 -15.753906 9.019531 -15.460938 9.1875 -15.046875 C 9.332031 -14.648438 9.429688 -14.398438 9.484375 -14.296875 C 9.765625 -13.617188 10.082031 -12.832031 10.4375 -11.9375 C 10.800781 -11.050781 11.195312 -10.039062 11.625 -8.90625 C 12.507812 -6.664062 13.0625 -5.191406 13.28125 -4.484375 L 13.375 -4.234375 L 13.40625 -5.6875 L 13.40625 -11.78125 C 13.363281 -14.925781 13.328125 -16.53125 13.296875 -16.59375 C 13.242188 -16.675781 13.144531 -16.769531 13 -16.875 L 18.3125 -16.875 L 18.3125 1.890625 L 11.921875 1.890625 L 11.15625 -0.078125 C 10.570312 -1.554688 10 -2.957031 9.4375 -4.28125 C 8.882812 -5.601562 8.347656 -6.863281 7.828125 -8.0625 L 7.5625 -8.703125 Z M 7.5625 -16.875 "/></g></g></g><g fill="#f9943b" fill-opacity="1"><g transform="translate(253.625183, 198.827022)"><g><path d="M 10.6875 -17.09375 C 11.414062 -17.070312 11.910156 -17.046875 12.171875 -17.015625 C 13.273438 -16.847656 14.28125 -16.492188 15.1875 -15.953125 C 16.09375 -15.410156 16.8125 -14.644531 17.34375 -13.65625 C 17.4375 -13.5 17.519531 -13.320312 17.59375 -13.125 C 17.675781 -12.925781 17.75 -12.722656 17.8125 -12.515625 C 17.882812 -12.304688 17.9375 -12.101562 17.96875 -11.90625 C 18 -11.707031 18.015625 -11.539062 18.015625 -11.40625 L 18.015625 -11.28125 L 15.515625 -11.28125 C 14.898438 -11.28125 14.410156 -11.28125 14.046875 -11.28125 C 13.679688 -11.28125 13.429688 -11.285156 13.296875 -11.296875 C 13.035156 -11.316406 12.90625 -11.351562 12.90625 -11.40625 C 12.90625 -11.4375 12.882812 -11.492188 12.84375 -11.578125 C 12.800781 -11.660156 12.753906 -11.75 12.703125 -11.84375 C 12.648438 -11.945312 12.585938 -12.050781 12.515625 -12.15625 C 12.453125 -12.269531 12.398438 -12.359375 12.359375 -12.421875 C 12.066406 -12.742188 11.726562 -12.96875 11.34375 -13.09375 C 10.96875 -13.21875 10.570312 -13.28125 10.15625 -13.28125 C 9.457031 -13.28125 8.882812 -13.078125 8.4375 -12.671875 C 7.988281 -12.273438 7.632812 -11.78125 7.375 -11.1875 C 7.113281 -10.601562 6.9375 -9.972656 6.84375 -9.296875 C 6.757812 -8.617188 6.71875 -8 6.71875 -7.4375 C 6.71875 -7.125 6.71875 -6.851562 6.71875 -6.625 C 6.71875 -6.394531 6.722656 -6.195312 6.734375 -6.03125 C 6.867188 -4.875 7.132812 -3.914062 7.53125 -3.15625 C 7.9375 -2.394531 8.460938 -1.910156 9.109375 -1.703125 C 9.304688 -1.617188 9.582031 -1.578125 9.9375 -1.578125 C 10.46875 -1.578125 10.90625 -1.660156 11.25 -1.828125 C 11.601562 -1.992188 11.890625 -2.222656 12.109375 -2.515625 C 12.335938 -2.816406 12.492188 -3.164062 12.578125 -3.5625 C 12.671875 -3.96875 12.71875 -4.398438 12.71875 -4.859375 L 12.71875 -5.0625 L 9.734375 -5.0625 L 9.734375 -8.765625 L 18.0625 -8.765625 L 18.0625 1.703125 L 14.078125 1.703125 L 14.078125 0.875 L 14.046875 0.046875 L 13.875 0.34375 C 13.039062 1.5625 11.660156 2.171875 9.734375 2.171875 C 9.066406 2.171875 8.40625 2.101562 7.75 1.96875 C 7.09375 1.832031 6.460938 1.628906 5.859375 1.359375 C 5.265625 1.085938 4.703125 0.742188 4.171875 0.328125 C 3.648438 -0.0859375 3.191406 -0.570312 2.796875 -1.125 C 1.609375 -2.769531 1.054688 -4.984375 1.140625 -7.765625 C 1.179688 -9.421875 1.53125 -10.929688 2.1875 -12.296875 C 2.84375 -13.660156 3.882812 -14.796875 5.3125 -15.703125 C 5.789062 -15.992188 6.238281 -16.226562 6.65625 -16.40625 C 7.070312 -16.59375 7.488281 -16.738281 7.90625 -16.84375 C 8.320312 -16.945312 8.753906 -17.015625 9.203125 -17.046875 C 9.648438 -17.078125 10.144531 -17.09375 10.6875 -17.09375 Z M 10.6875 -17.09375 "/></g></g></g><g clip-path="url(#6ce74d8be3)"><path fill="#f9943b" d="M 138.539062 221.710938 C 135.753906 221.710938 133.203125 221.417969 130.917969 220.859375 L 118.785156 220.859375 C 117.875 220.859375 117.144531 220.128906 117.144531 219.21875 C 117.144531 218.3125 117.875 217.578125 118.785156 217.578125 L 129.011719 217.578125 C 129.804688 217.460938 130.390625 216.789062 130.390625 215.964844 C 130.390625 215.058594 129.65625 214.324219 128.75 214.324219 L 113.363281 214.324219 C 112.453125 214.355469 111.722656 213.621094 111.722656 212.742188 C 111.722656 211.835938 112.453125 211.101562 113.363281 211.101562 L 115.738281 211.101562 C 116 211.101562 116.234375 211.074219 116.46875 211.015625 C 116.46875 210.957031 116.441406 210.867188 116.441406 210.78125 C 116.441406 209.871094 117.171875 209.136719 118.082031 209.136719 L 122.976562 209.136719 C 123.882812 209.136719 124.617188 208.40625 124.617188 207.496094 C 124.617188 206.589844 123.882812 205.855469 122.976562 205.855469 L 119.398438 205.855469 C 118.492188 205.855469 117.757812 205.125 117.757812 204.214844 C 117.757812 203.304688 118.492188 202.574219 119.398438 202.574219 L 125.464844 202.574219 C 125.582031 202.542969 125.699219 202.542969 125.816406 202.542969 C 126.640625 202.515625 127.34375 202.75 127.929688 203.304688 C 129.160156 204.449219 130.417969 205.386719 131.648438 206.148438 C 133.613281 207.320312 135.753906 207.9375 138.125 207.9375 C 140.941406 207.9375 143.136719 207.058594 144.75 205.300781 C 145.453125 204.539062 146.011719 203.539062 146.390625 202.339844 L 142.582031 202.339844 C 141.671875 202.339844 140.941406 201.605469 140.941406 200.699219 C 140.941406 199.789062 141.671875 199.058594 142.582031 199.058594 L 155.59375 199.058594 C 156.5 199.058594 157.234375 198.324219 157.234375 197.414062 C 157.234375 196.507812 156.5 195.773438 155.59375 195.773438 L 134.550781 195.773438 C 133.644531 195.773438 132.910156 195.042969 132.910156 194.132812 C 132.910156 193.226562 133.644531 192.492188 134.550781 192.492188 L 149.351562 192.492188 C 150.257812 192.492188 150.992188 191.761719 150.992188 190.851562 C 150.992188 189.941406 150.257812 189.210938 149.351562 189.210938 L 146.683594 189.210938 C 145.777344 189.210938 145.042969 188.476562 145.042969 187.570312 C 145.042969 186.660156 145.777344 185.929688 146.683594 185.929688 L 148.089844 185.929688 C 149 185.929688 149.730469 185.195312 149.730469 184.285156 C 149.730469 183.378906 149 182.644531 148.089844 182.644531 L 143.605469 182.644531 C 142.699219 182.644531 141.964844 181.914062 141.964844 181.003906 C 141.964844 180.097656 142.699219 179.363281 143.605469 179.363281 L 150.523438 179.363281 C 151.433594 179.363281 152.164062 178.628906 152.164062 177.722656 C 152.164062 176.8125 151.433594 176.082031 150.523438 176.082031 L 130.800781 176.082031 C 129.890625 176.082031 129.160156 175.347656 129.160156 174.441406 C 129.160156 173.53125 129.890625 172.796875 130.800781 172.796875 L 148.296875 172.796875 C 149.203125 172.796875 149.9375 172.066406 149.9375 171.15625 C 149.9375 170.367188 149.351562 169.691406 148.589844 169.546875 L 140.96875 169.546875 C 140.0625 169.546875 139.328125 168.8125 139.328125 167.90625 C 139.328125 166.996094 140.0625 166.261719 140.96875 166.261719 L 151.785156 166.261719 C 151.929688 166.261719 152.046875 166.292969 152.164062 166.320312 L 155.125 166.320312 C 156.03125 166.320312 156.765625 165.589844 156.765625 164.679688 C 156.765625 163.890625 156.179688 163.214844 155.417969 163.070312 L 142.582031 163.070312 C 141.671875 163.070312 140.941406 162.335938 140.941406 161.429688 C 140.941406 160.519531 141.671875 159.785156 142.582031 159.785156 L 153.453125 159.785156 C 154.363281 159.785156 155.09375 159.054688 155.09375 158.144531 C 155.09375 157.355469 154.507812 156.679688 153.746094 156.535156 L 147.476562 156.535156 C 146.566406 156.535156 145.835938 155.800781 145.835938 154.894531 C 145.835938 154.070312 146.421875 153.398438 147.210938 153.28125 L 147.210938 153.542969 L 165.792969 153.542969 C 166.699219 153.542969 167.433594 154.277344 167.433594 155.1875 C 167.433594 156.09375 166.699219 156.828125 165.792969 156.828125 L 162.363281 156.828125 L 162.363281 197.503906 C 162.363281 201.546875 161.804688 205.035156 160.722656 207.964844 C 159.636719 210.898438 158.054688 213.417969 156.003906 215.46875 C 153.953125 217.519531 151.433594 219.074219 148.472656 220.128906 C 145.484375 221.183594 142.171875 221.710938 138.539062 221.710938 Z M 134.960938 179.539062 L 137.980469 179.539062 C 138.890625 179.539062 139.621094 180.273438 139.621094 181.179688 C 139.621094 182.089844 138.890625 182.820312 137.980469 182.820312 L 134.960938 182.820312 C 134.054688 182.820312 133.320312 182.089844 133.320312 181.179688 C 133.320312 180.273438 134.054688 179.539062 134.960938 179.539062 Z M 135.8125 160.050781 L 137.890625 160.050781 C 138.800781 160.050781 139.535156 160.785156 139.535156 161.691406 C 139.535156 162.601562 138.800781 163.332031 137.890625 163.332031 L 135.8125 163.332031 C 134.902344 163.332031 134.171875 162.601562 134.171875 161.691406 C 134.171875 160.785156 134.902344 160.050781 135.8125 160.050781 Z M 127.8125 192.582031 L 129.714844 192.582031 C 130.625 192.582031 131.355469 193.3125 131.355469 194.222656 C 131.355469 195.128906 130.625 195.863281 129.714844 195.863281 L 127.8125 195.863281 C 126.902344 195.863281 126.171875 195.128906 126.171875 194.222656 C 126.199219 193.3125 126.933594 192.582031 127.8125 192.582031 Z M 142.316406 153.542969 L 143.371094 153.542969 C 144.28125 153.542969 145.015625 154.277344 145.015625 155.1875 C 145.015625 156.09375 144.28125 156.828125 143.371094 156.828125 L 142.316406 156.828125 C 141.410156 156.828125 140.675781 156.09375 140.675781 155.1875 C 140.707031 154.277344 141.4375 153.542969 142.316406 153.542969 Z M 128.191406 166.496094 L 135.8125 166.496094 C 136.71875 166.496094 137.453125 167.230469 137.453125 168.140625 C 137.453125 169.046875 136.71875 169.78125 135.8125 169.78125 L 128.191406 169.78125 C 127.285156 169.78125 126.550781 169.046875 126.550781 168.140625 C 126.582031 167.230469 127.3125 166.496094 128.191406 166.496094 Z M 118.316406 173.003906 L 124.617188 173.003906 C 125.523438 173.003906 126.257812 173.738281 126.257812 174.644531 C 126.257812 175.554688 125.523438 176.285156 124.617188 176.285156 L 118.316406 176.285156 C 117.40625 176.285156 116.675781 175.554688 116.675781 174.644531 C 116.703125 173.738281 117.4375 173.003906 118.316406 173.003906 Z M 126.375 186.074219 L 137.746094 186.074219 C 138.65625 186.074219 139.386719 186.808594 139.386719 187.714844 C 139.386719 188.625 138.65625 189.355469 137.746094 189.355469 L 126.375 189.355469 C 125.464844 189.355469 124.734375 188.625 124.734375 187.714844 C 124.734375 186.808594 125.464844 186.074219 126.375 186.074219 Z M 126.375 186.074219 " fill-opacity="1" fill-rule="evenodd"/></g></svg>